<?xml version="1.0" encoding="UTF-8"?>
<!-- Created with Inkscape (http://www.inkscape.org/) -->
<svg width="1515" height="920" version="1.1" viewBox="0 0 1515 920" xmlns="http://www.w3.org/2000/svg" xmlns:cc="http://creativecommons.org/ns#" xmlns:dc="http://purl.org/dc/elements/1.1/" xmlns:rdf="http://www.w3.org/1999/02/22-rdf-syntax-ns#">
 <metadata>
  <rdf:RDF>
   <cc:Work rdf:about="">
    <dc:format>image/svg+xml</dc:format>
    <dc:type rdf:resource="http://purl.org/dc/dcmitype/StillImage"/>
    <dc:title/>
   </cc:Work>
  </rdf:RDF>
 </metadata>
 <g transform="translate(0 -202.52)">
  <path d="m494.34 1118.3h981.5l26.675-46.202-481.86-865.4h-981.5l-26.675 46.202z" fill="#f00"/>
  <path d="m494.34 1118.3 263.16-455.8-736.12-425-17.783 30.801z" fill="#07f"/>
  <path d="m1020.7 206.72-263.16 455.8 736.12 425 17.783-30.801z" fill="#07f"/>
 </g>
 <g transform="translate(0 -202.52)" fill="#ddd" stroke="#000" stroke-width="3">
  <path d="m64.679 262.52v50l43.301 25 43.301-25v-50l-43.301-25z"/>
  <path d="m107.98 337.52v50l43.301 25 43.301-25v-50l-43.301-25z"/>
  <path d="m151.28 412.52v50l43.301 25 43.301-25v-50l-43.301-25z"/>
  <path d="m194.58 487.52v50l43.301 25 43.301-25v-50l-43.301-25z"/>
  <path d="m237.88 562.52v50l43.301 25 43.301-25v-50l-43.301-25z"/>
  <path d="m281.19 637.52v50l43.301 25 43.301-25v-50l-43.301-25z"/>
  <path d="m324.49 712.52v50l43.301 25 43.301-25v-50l-43.301-25z"/>
  <path d="m367.79 787.52v50l43.301 25 43.301-25v-50l-43.301-25z"/>
  <path d="m411.09 862.52v50l43.301 25 43.301-25v-50l-43.301-25z"/>
  <path d="m454.39 937.52v50l43.301 25 43.301-25v-50l-43.301-25z"/>
  <path d="m497.69 1012.5v50l43.301 25 43.301-25v-50l-43.301-25z"/>
  <path d="m151.28 262.52v50l43.301 25 43.301-25v-50l-43.301-25z"/>
  <path d="m194.58 337.52v50l43.301 25 43.301-25v-50l-43.301-25z"/>
  <path d="m237.88 412.52v50l43.301 25 43.301-25v-50l-43.301-25z"/>
  <path d="m281.19 487.52v50l43.301 25 43.301-25v-50l-43.301-25z"/>
  <path d="m324.49 562.52v50l43.301 25 43.301-25v-50l-43.301-25z"/>
  <path d="m367.79 637.52v50l43.301 25 43.301-25v-50l-43.301-25z"/>
  <path d="m411.09 712.52v50l43.301 25 43.301-25v-50l-43.301-25z"/>
  <path d="m454.39 787.52v50l43.301 25 43.301-25v-50l-43.301-25z"/>
  <path d="m497.69 862.52v50l43.301 25 43.301-25v-50l-43.301-25z"/>
  <path d="m540.99 937.52v50l43.301 25 43.301-25v-50l-43.301-25z"/>
  <path d="m584.29 1012.5v50l43.301 25 43.301-25v-50l-43.301-25z"/>
  <path d="m237.88 262.52v50l43.301 25 43.301-25v-50l-43.301-25z"/>
  <path d="m281.19 337.52v50l43.301 25 43.301-25v-50l-43.301-25z"/>
  <path d="m324.49 412.52v50l43.301 25 43.301-25v-50l-43.301-25z"/>
  <path d="m367.79 487.52v50l43.301 25 43.301-25v-50l-43.301-25z"/>
  <path d="m411.09 562.52v50l43.301 25 43.301-25v-50l-43.301-25z"/>
  <path d="m454.39 637.52v50l43.301 25 43.301-25v-50l-43.301-25z"/>
  <path d="m497.69 712.52v50l43.301 25 43.301-25v-50l-43.301-25z"/>
  <path d="m540.99 787.52v50l43.301 25 43.301-25v-50l-43.301-25z"/>
  <path d="m584.29 862.52v50l43.301 25 43.301-25v-50l-43.301-25z"/>
  <path d="m627.6 937.52v50l43.301 25 43.301-25v-50l-43.301-25z"/>
  <path d="m670.9 1012.5v50l43.301 25 43.301-25v-50l-43.301-25z"/>
  <path d="m324.49 262.52v50l43.301 25 43.301-25v-50l-43.301-25z"/>
  <path d="m367.79 337.52v50l43.301 25 43.301-25v-50l-43.301-25z"/>
  <path d="m411.09 412.52v50l43.301 25 43.301-25v-50l-43.301-25z"/>
  <path d="m454.39 487.52v50l43.301 25 43.301-25v-50l-43.301-25z"/>
  <path d="m497.69 562.52v50l43.301 25 43.301-25v-50l-43.301-25z"/>
  <path d="m540.99 637.52v50l43.301 25 43.301-25v-50l-43.301-25z"/>
  <path d="m584.29 712.52v50l43.301 25 43.301-25v-50l-43.301-25z"/>
  <path d="m627.6 787.52v50l43.301 25 43.301-25v-50l-43.301-25z"/>
  <path d="m670.9 862.52v50l43.301 25 43.301-25v-50l-43.301-25z"/>
  <path d="m714.2 937.52v50l43.301 25 43.301-25v-50l-43.301-25z"/>
  <path d="m757.5 1012.5v50l43.301 25 43.301-25v-50l-43.301-25z"/>
  <path d="m411.09 262.52v50l43.301 25 43.301-25v-50l-43.301-25z"/>
  <path d="m454.39 337.52v50l43.301 25 43.301-25v-50l-43.301-25z"/>
  <path d="m497.69 412.52v50l43.301 25 43.301-25v-50l-43.301-25z"/>
  <path d="m540.99 487.52v50l43.301 25 43.301-25v-50l-43.301-25z"/>
  <path d="m584.29 562.52v50l43.301 25 43.301-25v-50l-43.301-25z"/>
  <path d="m627.6 637.52v50l43.301 25 43.301-25v-50l-43.301-25z"/>
  <path d="m670.9 712.52v50l43.301 25 43.301-25v-50l-43.301-25z"/>
  <path d="m714.2 787.52v50l43.301 25 43.301-25v-50l-43.301-25z"/>
  <path d="m757.5 862.52v50l43.301 25 43.301-25v-50l-43.301-25z"/>
  <path d="m800.8 937.52v50l43.301 25 43.301-25v-50l-43.301-25z"/>
  <path d="m844.1 1012.5v50l43.301 25 43.301-25v-50l-43.301-25z"/>
  <path d="m497.69 262.52v50l43.301 25 43.301-25v-50l-43.301-25z"/>
  <path d="m540.99 337.52v50l43.301 25 43.301-25v-50l-43.301-25z"/>
  <path d="m584.29 412.52v50l43.301 25 43.301-25v-50l-43.301-25z"/>
  <path d="m627.6 487.52v50l43.301 25 43.301-25v-50l-43.301-25z"/>
  <path d="m670.9 562.52v50l43.301 25 43.301-25v-50l-43.301-25z"/>
  <path d="m714.2 637.52v50l43.301 25 43.301-25v-50l-43.301-25z"/>
  <path d="m757.5 712.52v50l43.301 25 43.301-25v-50l-43.301-25z"/>
  <path d="m800.8 787.52v50l43.301 25 43.301-25v-50l-43.301-25z"/>
  <path d="m844.1 862.52v50l43.301 25 43.301-25v-50l-43.301-25z"/>
  <path d="m887.4 937.52v50l43.301 25 43.301-25v-50l-43.301-25z"/>
  <path d="m930.7 1012.5v50l43.301 25 43.301-25v-50l-43.301-25z"/>
  <path d="m584.29 262.52v50l43.301 25 43.301-25v-50l-43.301-25z"/>
  <path d="m627.6 337.52v50l43.301 25 43.301-25v-50l-43.301-25z"/>
  <path d="m670.9 412.52v50l43.301 25 43.301-25v-50l-43.301-25z"/>
  <path d="m714.2 487.52v50l43.301 25 43.301-25v-50l-43.301-25z"/>
  <path d="m757.5 562.52v50l43.301 25 43.301-25v-50l-43.301-25z"/>
  <path d="m800.8 637.52v50l43.301 25 43.301-25v-50l-43.301-25z"/>
  <path d="m844.1 712.52v50l43.301 25 43.301-25v-50l-43.301-25z"/>
  <path d="m887.4 787.52v50l43.301 25 43.301-25v-50l-43.301-25z"/>
  <path d="m930.7 862.52v50l43.301 25 43.301-25v-50l-43.301-25z"/>
  <path d="m974.01 937.52v50l43.301 25 43.301-25v-50l-43.301-25z"/>
  <path d="m1017.3 1012.5v50l43.301 25 43.301-25v-50l-43.301-25z"/>
  <path d="m670.9 262.52v50l43.301 25 43.301-25v-50l-43.301-25z"/>
  <path d="m714.2 337.52v50l43.301 25 43.301-25v-50l-43.301-25z"/>
  <path d="m757.5 412.52v50l43.301 25 43.301-25v-50l-43.301-25z"/>
  <path d="m800.8 487.52v50l43.301 25 43.301-25v-50l-43.301-25z"/>
  <path d="m844.1 562.52v50l43.301 25 43.301-25v-50l-43.301-25z"/>
  <path d="m887.4 637.52v50l43.301 25 43.301-25v-50l-43.301-25z"/>
  <path d="m930.7 712.52v50l43.301 25 43.301-25v-50l-43.301-25z"/>
  <path d="m974.01 787.52v50l43.301 25 43.301-25v-50l-43.301-25z"/>
  <path d="m1017.3 862.52v50l43.301 25 43.301-25v-50l-43.301-25z"/>
  <path d="m1060.6 937.52v50l43.301 25 43.301-25v-50l-43.301-25z"/>
  <path d="m1103.9 1012.5v50l43.301 25 43.301-25v-50l-43.301-25z"/>
  <path d="m757.5 262.52v50l43.301 25 43.301-25v-50l-43.301-25z"/>
  <path d="m800.8 337.52v50l43.301 25 43.301-25v-50l-43.301-25z"/>
  <path d="m844.1 412.52v50l43.301 25 43.301-25v-50l-43.301-25z"/>
  <path d="m887.4 487.52v50l43.301 25 43.301-25v-50l-43.301-25z"/>
  <path d="m930.7 562.52v50l43.301 25 43.301-25v-50l-43.301-25z"/>
  <path d="m974.01 637.52v50l43.301 25 43.301-25v-50l-43.301-25z"/>
  <path d="m1017.3 712.52v50l43.301 25 43.301-25v-50l-43.301-25z"/>
  <path d="m1060.6 787.52v50l43.301 25 43.301-25v-50l-43.301-25z"/>
  <path d="m1103.9 862.52v50l43.301 25 43.301-25v-50l-43.301-25z"/>
  <path d="m1147.2 937.52v50l43.301 25 43.301-25v-50l-43.301-25z"/>
  <path d="m1190.5 1012.5v50l43.301 25 43.301-25v-50l-43.301-25z"/>
  <path d="m844.1 262.52v50l43.301 25 43.301-25v-50l-43.301-25z"/>
  <path d="m887.4 337.52v50l43.301 25 43.301-25v-50l-43.301-25z"/>
  <path d="m930.7 412.52v50l43.301 25 43.301-25v-50l-43.301-25z"/>
  <path d="m974.01 487.52v50l43.301 25 43.301-25v-50l-43.301-25z"/>
  <path d="m1017.3 562.52v50l43.301 25 43.301-25v-50l-43.301-25z"/>
  <path d="m1060.6 637.52v50l43.301 25 43.301-25v-50l-43.301-25z"/>
  <path d="m1103.9 712.52v50l43.301 25 43.301-25v-50l-43.301-25z"/>
  <path d="m1147.2 787.52v50l43.301 25 43.301-25v-50l-43.301-25z"/>
  <path d="m1190.5 862.52v50l43.301 25 43.301-25v-50l-43.301-25z"/>
  <path d="m1233.8 937.52v50l43.301 25 43.301-25v-50l-43.301-25z"/>
  <path d="m1277.1 1012.5v50l43.301 25 43.301-25v-50l-43.301-25z"/>
  <path d="m930.7 262.52v50l43.301 25 43.301-25v-50l-43.301-25z"/>
  <path d="m974.01 337.52v50l43.301 25 43.301-25v-50l-43.301-25z"/>
  <path d="m1017.3 412.52v50l43.301 25 43.301-25v-50l-43.301-25z"/>
  <path d="m1060.6 487.52v50l43.301 25 43.301-25v-50l-43.301-25z"/>
  <path d="m1103.9 562.52v50l43.301 25 43.301-25v-50l-43.301-25z"/>
  <path d="m1147.2 637.52v50l43.301 25 43.301-25v-50l-43.301-25z"/>
  <path d="m1190.5 712.52v50l43.301 25 43.301-25v-50l-43.301-25z"/>
  <path d="m1233.8 787.52v50l43.301 25 43.301-25v-50l-43.301-25z"/>
  <path d="m1277.1 862.52v50l43.301 25 43.301-25v-50l-43.301-25z"/>
  <path d="m1320.4 937.52v50l43.301 25 43.301-25v-50l-43.301-25z"/>
  <path d="m1363.7 1012.5v50l43.301 25 43.301-25v-50l-43.301-25z"/>
 </g>
 <g fill="#000000" font-family="sans-serif" font-size="40px" letter-spacing="0px" text-anchor="middle" word-spacing="0px">
  <text x="39.679688" y="99.99984" text-align="center" style="line-height:1.25" xml:space="preserve"><tspan x="37.679688" y="99.99984" fill="#ffffff" letter-spacing="-4px">1</tspan></text>
  <text x="84.980965" y="174.99985" text-align="center" style="line-height:1.25" xml:space="preserve"><tspan x="82.980965" y="174.99985" fill="#ffffff" letter-spacing="-4px">2</tspan></text>
  <text x="128.28223" y="249.99985" text-align="center" style="line-height:1.25" xml:space="preserve"><tspan x="126.28223" y="249.99985" fill="#ffffff" letter-spacing="-4px">3</tspan></text>
  <text x="171.58351" y="324.99985" text-align="center" style="line-height:1.25" xml:space="preserve"><tspan x="169.58351" y="324.99985" fill="#ffffff" letter-spacing="-4px">4</tspan></text>
  <text x="214.88478" y="399.99985" text-align="center" style="line-height:1.25" xml:space="preserve"><tspan x="212.88478" y="399.99985" fill="#ffffff" letter-spacing="-4px">5</tspan></text>
  <text x="258.18604" y="474.99985" text-align="center" style="line-height:1.25" xml:space="preserve"><tspan x="256.18604" y="474.99985" fill="#ffffff" letter-spacing="-4px">6</tspan></text>
  <text x="301.4873" y="549.99982" text-align="center" style="line-height:1.25" xml:space="preserve"><tspan x="299.4873" y="549.99982" fill="#ffffff" letter-spacing="-4px">7</tspan></text>
  <text x="344.78857" y="624.99988" text-align="center" style="line-height:1.25" xml:space="preserve"><tspan x="342.78857" y="624.99988" fill="#ffffff" letter-spacing="-4px">8</tspan></text>
  <text x="388.08984" y="699.99994" text-align="center" style="line-height:1.25" xml:space="preserve"><tspan x="386.08984" y="699.99994" fill="#ffffff" letter-spacing="-4px">9</tspan></text>
  <text x="431.39111" y="774.99994" text-align="center" style="line-height:1.25" xml:space="preserve"><tspan x="429.39111" y="774.99994" fill="#ffffff" letter-spacing="-4px">10</tspan></text>
  <text x="474.69238" y="850" text-align="center" style="line-height:1.25" xml:space="preserve"><tspan x="472.69238" y="850" fill="#ffffff" letter-spacing="-4px">11</tspan></text>
  <text x="1039.3077" y="99.99984" text-align="center" style="line-height:1.25" xml:space="preserve"><tspan x="1037.3077" y="99.99984" fill="#ffffff" letter-spacing="-4px">1</tspan></text>
  <text x="1084.6089" y="174.99985" text-align="center" style="line-height:1.25" xml:space="preserve"><tspan x="1082.6089" y="174.99985" fill="#ffffff" letter-spacing="-4px">2</tspan></text>
  <text x="1127.9102" y="249.99985" text-align="center" style="line-height:1.25" xml:space="preserve"><tspan x="1125.9102" y="249.99985" fill="#ffffff" letter-spacing="-4px">3</tspan></text>
  <text x="1171.2115" y="324.99985" text-align="center" style="line-height:1.25" xml:space="preserve"><tspan x="1169.2115" y="324.99985" fill="#ffffff" letter-spacing="-4px">4</tspan></text>
  <text x="1214.5128" y="399.99985" text-align="center" style="line-height:1.25" xml:space="preserve"><tspan x="1212.5128" y="399.99985" fill="#ffffff" letter-spacing="-4px">5</tspan></text>
  <text x="1257.814" y="474.99985" text-align="center" style="line-height:1.25" xml:space="preserve"><tspan x="1255.814" y="474.99985" fill="#ffffff" letter-spacing="-4px">6</tspan></text>
  <text x="1301.1152" y="549.99982" text-align="center" style="line-height:1.25" xml:space="preserve"><tspan x="1299.1152" y="549.99982" fill="#ffffff" letter-spacing="-4px">7</tspan></text>
  <text x="1344.4165" y="624.99988" text-align="center" style="line-height:1.25" xml:space="preserve"><tspan x="1342.4165" y="624.99988" fill="#ffffff" letter-spacing="-4px">8</tspan></text>
  <text x="1387.7178" y="699.99994" text-align="center" style="line-height:1.25" xml:space="preserve"><tspan x="1385.7178" y="699.99994" fill="#ffffff" letter-spacing="-4px">9</tspan></text>
  <text x="1431.019" y="774.99994" text-align="center" style="line-height:1.25" xml:space="preserve"><tspan x="1429.019" y="774.99994" fill="#ffffff" letter-spacing="-4px">10</tspan></text>
  <text x="1474.3203" y="850" text-align="center" style="line-height:1.25" xml:space="preserve"><tspan x="1472.3203" y="850" fill="#ffffff" letter-spacing="-4px">11</tspan></text>
  <text x="78.330063" y="37.499596" text-align="center" style="line-height:1.25" xml:space="preserve"><tspan x="76.330063" y="37.499596" fill="#ffffff" letter-spacing="-4px">A</tspan></text>
  <text x="164.9326" y="37.499596" text-align="center" style="line-height:1.25" xml:space="preserve"><tspan x="162.9326" y="37.499596" fill="#ffffff" letter-spacing="-4px">B</tspan></text>
  <text x="251.53513" y="37.499596" text-align="center" style="line-height:1.25" xml:space="preserve"><tspan x="249.53513" y="37.499596" fill="#ffffff" letter-spacing="-4px">C</tspan></text>
  <text x="338.1377" y="37.499596" text-align="center" style="line-height:1.25" xml:space="preserve"><tspan x="336.1377" y="37.499596" fill="#ffffff" letter-spacing="-4px">D</tspan></text>
  <text x="424.7402" y="37.499596" text-align="center" style="line-height:1.25" xml:space="preserve"><tspan x="422.7402" y="37.499596" fill="#ffffff" letter-spacing="-4px">E</tspan></text>
  <text x="511.3428" y="37.499596" text-align="center" style="line-height:1.25" xml:space="preserve"><tspan x="509.3428" y="37.499596" fill="#ffffff" letter-spacing="-4px">F</tspan></text>
  <text x="597.94531" y="37.499596" text-align="center" style="line-height:1.25" xml:space="preserve"><tspan x="595.94531" y="37.499596" fill="#ffffff" letter-spacing="-4px">G</tspan></text>
  <text x="684.54791" y="37.499596" text-align="center" style="line-height:1.25" xml:space="preserve"><tspan x="682.54791" y="37.499596" fill="#ffffff" letter-spacing="-4px">H</tspan></text>
  <text x="771.15039" y="37.499596" text-align="center" style="line-height:1.25" xml:space="preserve"><tspan x="769.15039" y="37.499596" fill="#ffffff" letter-spacing="-4px">I</tspan></text>
  <text x="857.75299" y="37.499596" text-align="center" style="line-height:1.25" xml:space="preserve"><tspan x="855.75299" y="37.499596" fill="#ffffff" letter-spacing="-4px">J</tspan></text>
  <text x="944.35553" y="37.499596" text-align="center" style="line-height:1.25" xml:space="preserve"><tspan x="942.35553" y="37.499596" fill="#ffffff" letter-spacing="-4px">K</tspan></text>
  <text x="574.64404" y="907.49957" text-align="center" style="line-height:1.25" xml:space="preserve"><tspan x="572.64404" y="907.49957" fill="#ffffff" letter-spacing="-4px">A</tspan></text>
  <text x="661.24658" y="907.49957" text-align="center" style="line-height:1.25" xml:space="preserve"><tspan x="659.24658" y="907.49957" fill="#ffffff" letter-spacing="-4px">B</tspan></text>
  <text x="747.84912" y="907.49957" text-align="center" style="line-height:1.25" xml:space="preserve"><tspan x="745.84912" y="907.49957" fill="#ffffff" letter-spacing="-4px">C</tspan></text>
  <text x="834.45166" y="907.49957" text-align="center" style="line-height:1.25" xml:space="preserve"><tspan x="832.45166" y="907.49957" fill="#ffffff" letter-spacing="-4px">D</tspan></text>
  <text x="921.0542" y="907.49957" text-align="center" style="line-height:1.25" xml:space="preserve"><tspan x="919.0542" y="907.49957" fill="#ffffff" letter-spacing="-4px">E</tspan></text>
  <text x="1007.6568" y="907.49957" text-align="center" style="line-height:1.25" xml:space="preserve"><tspan x="1005.6568" y="907.49957" fill="#ffffff" letter-spacing="-4px">F</tspan></text>
  <text x="1094.2593" y="907.49957" text-align="center" style="line-height:1.25" xml:space="preserve"><tspan x="1092.2593" y="907.49957" fill="#ffffff" letter-spacing="-4px">G</tspan></text>
  <text x="1180.8619" y="907.49957" text-align="center" style="line-height:1.25" xml:space="preserve"><tspan x="1178.8619" y="907.49957" fill="#ffffff" letter-spacing="-4px">H</tspan></text>
  <text x="1267.4644" y="907.49957" text-align="center" style="line-height:1.25" xml:space="preserve"><tspan x="1265.4644" y="907.49957" fill="#ffffff" letter-spacing="-4px">I</tspan></text>
  <text x="1354.067" y="907.49957" text-align="center" style="line-height:1.25" xml:space="preserve"><tspan x="1352.067" y="907.49957" fill="#ffffff" letter-spacing="-4px">J</tspan></text>
  <text x="1440.6696" y="907.49957" text-align="center" style="line-height:1.25" xml:space="preserve"><tspan x="1438.6696" y="907.49957" fill="#ffffff" letter-spacing="-4px">K</tspan></text>
 </g>
 <g fill="#07f">
  <circle cx="324.49" cy="460" r="40"/>
  <circle cx="411.09" cy="460" r="40"/>
  <circle cx="454.39" cy="535" r="40"/>
  <circle cx="497.69" cy="610" r="40"/>
  <circle cx="584.29" cy="610" r="40"/>
  <circle cx="627.6" cy="535" r="40"/>
  <circle cx="670.9" cy="460" r="40"/>
  <circle cx="714.2" cy="385" r="40"/>
  <circle cx="757.5" cy="310" r="40"/>
  <circle cx="844.1" cy="310" r="40"/>
  <circle cx="930.7" cy="310" r="40"/>
  <circle cx="974.01" cy="385" r="40"/>
  <circle cx="1017.3" cy="460" r="40"/>
  <circle cx="1060.6" cy="535" r="40"/>
  <circle cx="1147.2" cy="535" r="40"/>
  <circle cx="1190.5" cy="460" r="40"/>
 </g>
 <g fill="#f00">
  <circle cx="194.58" cy="85" r="40"/>
  <circle cx="237.88" cy="160" r="40"/>
  <circle cx="281.19" cy="235" r="40"/>
  <circle cx="367.79" cy="235" r="40"/>
  <circle cx="411.09" cy="310" r="40"/>
  <circle cx="454.39" cy="385" r="40"/>
  <circle cx="497.69" cy="310" r="40"/>
  <circle cx="540.99" cy="385" r="40"/>
  <circle cx="584.29" cy="460" r="40"/>
  <circle cx="714.2" cy="535" r="40"/>
  <circle cx="800.8" cy="535" r="40"/>
  <circle cx="887.4" cy="535" r="40"/>
  <circle cx="930.7" cy="610" r="40"/>
  <circle cx="974.01" cy="685" r="40"/>
  <circle cx="930.7" cy="760" r="40"/>
  <circle cx="887.4" cy="835" r="40"/>
 </g>
 <path d="m281.19 460h108.25s10.048 0 18.75 5.024 13.726 13.726 13.726 13.726l64.952 112.5s5.024 8.7019 13.726 13.726 18.75 5.024 18.75 5.024l43.301-1e-5s10.048 0 18.75-5.024 13.726-13.726 13.726-13.726l151.55-262.5s5.024-8.7019 13.726-13.726 18.75-5.024 18.75-5.024l129.9-1e-5s10.048 0 18.75 5.024 13.726 13.726 13.726 13.726l108.25 187.5s5.024 8.7019 13.726 13.726 18.75 5.024 18.75 5.024h43.301s10.048-8e-5 18.75-5.024 13.726-13.726 13.726-13.726l54.127-93.75" fill="none" stroke="#ddf" stroke-width="12"/>
</svg>
